<?xml version="1.0" standalone="no"?>
<!DOCTYPE svg PUBLIC "-//W3C//DTD SVG 1.1//EN" "http://www.w3.org/Graphics/SVG/1.1/DTD/svg11.dtd" >
<svg xmlns="http://www.w3.org/2000/svg">
<metadata>Generated by IcoMoon</metadata>
<defs>
<font id="icomoon" horiz-adv-x="1024">
<font-face units-per-em="1024" ascent="960" descent="-64" />
<missing-glyph horiz-adv-x="1024" />
<glyph unicode="&#x20;" horiz-adv-x="512" d="" />
<glyph unicode="&#xe900;" glyph-name="icon_social-youtube" d="M421.703 286.118l-0.056 301.176 301.176-151.097-301.121-150.079zM1013.811 612.089c0 0-10.035 70.813-40.704 102.005-38.963 40.905-82.586 41.11-102.605 43.526-143.309 10.38-358.246 10.38-358.246 10.38h-0.41c0 0-214.989 0-358.298-10.38-20.019-2.415-63.642-2.621-102.554-43.526-30.72-31.193-40.704-102.005-40.704-102.005s-10.291-83.146-10.291-166.394v-77.904c0-83.197 10.291-166.343 10.291-166.343s9.984-70.813 40.704-102.057c38.912-40.956 90.112-39.62 112.896-43.885 81.92-7.914 348.109-10.329 348.109-10.329s215.194 0.257 358.502 10.74c20.019 2.312 63.642 2.518 102.605 43.474 30.669 31.244 40.704 102.057 40.704 102.057s10.189 83.146 10.189 166.343v77.904c0 83.249-10.189 166.394-10.189 166.394v0z" />
<glyph unicode="&#xe901;" glyph-name="icon_social-twitter" d="M960 745.826c-32.973-14.601-68.41-24.5-105.594-28.934 37.99 22.708 67.11 58.763 80.819 101.671-35.482-21.096-74.861-36.369-116.704-44.61-33.555 35.742-81.312 58.047-134.176 58.047-101.517 0-183.814-82.277-183.814-183.814 0-14.377 1.613-28.396 4.749-41.833-152.813 7.659-288.243 80.799-378.918 192.010-15.814-27.187-24.864-58.718-24.864-92.4 0-63.735 32.435-119.99 81.76-152.999-30.106 0.985-58.464 9.227-83.238 23.022-0.045-0.806-0.045-1.523-0.045-2.329 0-89.040 63.392-163.301 147.482-180.186-15.456-4.21-31.674-6.45-48.429-6.45-11.827 0-23.386 1.165-34.586 3.314 23.386-73.006 91.258-126.171 171.718-127.649-62.944-49.313-142.195-78.694-228.301-78.694-14.874 0-29.478 0.896-43.859 2.598 81.357-52.134 177.99-82.591 281.792-82.591 338.106 0 522.995 280.065 522.995 522.911 0 7.928-0.179 15.9-0.493 23.783 35.885 25.888 67.066 58.27 91.706 95.132z" />
<glyph unicode="&#xe902;" glyph-name="icon_social-pinterest" d="M512 896c-247.386 0-448-204.216-448-456.145 0-186.792 110.298-347.218 268.128-417.784-1.21 31.839-0.224 70.11 7.84 104.777 8.602 36.993 57.613 248.508 57.613 248.508s-14.291 29.148-14.291 72.208c0 67.555 38.483 118.050 86.374 118.050 40.768 0 60.435-31.155 60.435-68.467 0-41.692-26.118-104.092-39.558-161.886-11.2-48.397 23.834-87.854 70.739-87.854 84.851 0 142.061 111.026 142.061 242.533 0 99.941-66.17 174.795-186.458 174.795-135.878 0-220.55-103.18-220.55-218.448 0-39.73 11.514-67.783 29.568-89.45 8.243-9.99 9.408-14.004 6.406-25.453-2.15-8.393-7.078-28.6-9.094-36.628-3.002-11.54-12.186-15.646-22.445-11.404-62.586 26.046-91.75 95.836-91.75 174.293 0 129.545 107.341 284.954 320.186 284.954 171.046 0 283.584-126.033 283.584-261.326 0-178.946-97.664-312.596-241.696-312.596-48.384 0-93.856 26.639-109.446 56.881 0 0-26.029-105.142-31.539-125.394-9.498-35.214-28.090-70.338-45.069-97.752 40.275-12.088 82.835-18.702 126.963-18.702 247.386 0 448 204.262 448 456.145 0 251.929-200.614 456.145-448 456.145z" />
<glyph unicode="&#xe903;" glyph-name="icon_social-lnkedIn" d="M922.667 896h-821.333c-22.4 0-37.333-14.933-37.333-37.333v-821.333c0-22.4 14.933-37.333 37.333-37.333h821.333c22.4 0 37.333 14.933 37.333 37.333v821.333c0 22.4-14.933 37.333-37.333 37.333zM329.067 130.667h-130.667v429.333h134.4v-429.333h-3.733zM261.867 619.733c-41.067 0-78.4 33.6-78.4 78.4 0 41.067 33.6 78.4 78.4 78.4 41.067 0 78.4-33.6 78.4-78.4s-33.6-78.4-78.4-78.4zM829.333 130.667h-134.4v209.067c0 48.533 0 112-67.2 112-70.933 0-78.4-52.267-78.4-108.267v-212.8h-134.4v429.333h126.933v-59.733c18.667 33.6 59.733 67.2 126.933 67.2 134.4 0 160.533-89.6 160.533-205.333v-231.467z" />
<glyph unicode="&#xe904;" glyph-name="icon_social-instagram" d="M179.006 896h665.997c63.248 0 114.997-46.827 114.997-114.997v-666.016c0-68.17-51.749-114.997-114.997-114.997h-665.997c-63.267 0-115.006 46.827-115.006 114.997v666.016c0 68.17 51.739 114.997 115.006 114.997v0zM716.704 796.45c-22.19 0-40.322-18.142-40.322-40.341v-96.551c0-22.19 18.133-40.341 40.322-40.341h101.271c22.19 0 40.341 18.151 40.341 40.341v96.551c0 22.199-18.151 40.341-40.341 40.341h-101.271zM858.738 517.081h-78.86c7.461-24.361 11.5-50.166 11.5-76.864 0-149.036-124.712-269.847-278.522-269.847-153.801 0-278.495 120.811-278.495 269.847 0 26.716 4.029 52.512 11.5 76.864h-82.292v-378.487c0-19.586 16.026-35.621 35.621-35.621h623.945c19.595 0 35.621 16.026 35.621 35.621v378.487h-0.018zM512.846 624.304c-99.376 0-179.947-78.060-179.947-174.363s80.571-174.363 179.947-174.363c99.385 0 179.965 78.060 179.965 174.363s-80.571 174.363-179.965 174.363z" />
<glyph unicode="&#xe905;" glyph-name="icon_social-houzz" d="M520 260.31l328 174.89v-349.845l-328-174.955v349.91zM520 960v-349.845l-327.934-174.955 327.934-174.89-328-175.021v699.821l328 174.89zM520 610.090l328 175.021v-349.91l-328 174.89z" />
<glyph unicode="&#xe906;" glyph-name="icon_social-facebook" d="M910.541 896h-797.082c-27.328 0-49.459-22.131-49.459-49.459v-797.082c0-27.328 22.131-49.459 49.459-49.459h429.139v346.976h-116.794v135.251h116.794v99.68c0 115.763 70.65 178.752 173.869 178.752 49.459 0 91.974-3.674 104.384-5.331v-120.915l-71.635-0.045c-56.134 0-67.021-26.701-67.021-65.856v-86.285h133.952l-17.472-135.251h-116.48v-346.976h228.346c27.283 0 49.459 22.131 49.459 49.459v797.082c0 27.328-22.176 49.459-49.459 49.459z" />
<glyph unicode="&#xe907;" glyph-name="icon_social-email" d="M492.8 275.2l121.933 106.726 348.41-298.848c-12.602-11.757-29.638-19.078-48.435-19.078h-843.814c-18.867 0-35.974 7.322-48.646 19.078l348.621 298.848 121.933-106.726zM963.354 748.922l-470.554-403.322-470.413 403.181c12.672 11.898 29.709 19.219 48.506 19.219h843.814c18.938 0 35.974-7.251 48.646-19.078zM0 706.189l340.243-295.75-340.243-289.133v584.883zM645.357 410.438l340.243 295.962v-585.094l-340.243 289.133z" />
<glyph unicode="&#xe908;" glyph-name="icon_search" d="M136.162 784.234c-79.379-81.084-122.265-187.568-120.748-299.812 1.51-112.246 47.248-216.83 128.763-294.482 108.72-103.554 267.053-141.852 413.225-99.938 46.153 13.234 89.705 34.185 128.815 61.641l202.929-177.7 84.316 83.305-202.884 177.655c47.242 70.316 97.88 181.88 96.723 267.725-1.516 112.244-47.252 216.823-128.769 294.481-108.714 103.556-267.053 141.852-413.219 99.939-71.595-20.529-137.004-59.537-189.152-112.813zM671.772 732.172c63.739-61.563 99.7-144.272 101.251-232.876s-31.493-172.511-93.037-236.254c-40.453-41.9-91.212-72.47-146.776-88.403-113.762-32.621-237.25-1.875-322.268 80.24-63.739 61.563-99.698 144.264-101.244 232.878-1.552 88.604 31.493 172.511 93.035 236.262 40.448 41.89 91.206 72.46 146.77 88.393 113.769 32.623 237.25 1.875 322.268-80.24z" />
<glyph unicode="&#xe909;" glyph-name="icon_Play-2" d="M512 105.436c61.539 0 118.974 15.726 172.308 47.179 51.966 30.086 92.991 71.111 123.077 123.077 31.453 53.334 47.179 110.769 47.179 172.308s-15.726 118.974-47.179 172.308c-30.086 51.966-71.111 92.991-123.077 123.077-53.334 31.453-110.769 47.179-172.308 47.179s-118.974-15.726-172.308-47.179c-51.966-30.086-92.991-71.111-123.077-123.077-31.453-53.334-47.179-110.769-47.179-172.308s15.726-118.974 47.179-172.308c30.086-51.966 71.111-92.991 123.077-123.077 53.334-31.453 110.769-47.179 172.308-47.179zM512 874.667c77.949 0 150.085-19.487 216.41-58.462 64.274-36.923 114.872-87.521 151.795-151.795 38.975-66.325 58.462-138.461 58.462-216.41s-19.487-150.085-58.462-216.41c-36.923-64.274-87.521-114.872-151.795-151.795-66.325-38.975-138.461-58.462-216.41-58.462s-150.085 19.487-216.41 58.462c-64.274 37.607-114.872 88.547-151.795 152.821-38.975 66.325-58.462 138.119-58.462 215.385s19.487 149.059 58.462 215.385c37.607 64.274 88.547 115.213 152.821 152.821 66.325 38.975 138.119 58.462 215.385 58.462zM425.846 256.205v384.615l256.41-192.821-256.41-191.795z" />
<glyph unicode="&#xe90a;" glyph-name="icon_Play" d="M400.934 632.25c0 0.821 0.237 1.624 0.682 2.314 1.278 1.98 3.919 2.549 5.899 1.271l329.015-212.4c0.545-0.352 1.002-0.823 1.337-1.378 1.219-2.017 0.572-4.64-1.444-5.859l-329.015-198.87c-0.666-0.402-1.429-0.615-2.207-0.615-2.356 0-4.267 1.91-4.267 4.267v411.269zM512 917.333c258.804 0 469.333-210.53 469.333-469.333s-210.53-469.333-469.333-469.333c-258.804 0-469.333 210.53-469.333 469.333s210.53 469.333 469.333 469.333zM512 18.704c236.774 0 429.296 192.522 429.296 429.296s-192.522 429.296-429.296 429.296c-236.774 0-429.296-192.522-429.296-429.296s192.522-429.296 429.296-429.296z" />
<glyph unicode="&#xe90b;" d="M622.11 34.462c2.108 2.845 3.62 4.897 5.147 6.938 7.577 10.122 15.2 20.203 22.701 30.393 1.433 1.948 2.938 2.693 5.209 2.687 29.272-0.082 141.327-0.059 170.6-0.062 4.249-0.001 4.254-0.002 4.254 4.708 0.003 211.584 0.005 423.168 0.006 634.752 0 4.414-0.005 4.434-4.012 4.435-49.959 0.009-99.917 0.011-149.874 0.015-12.896 0.001-20.025 7.926-20.025 22.258-0.002 58.331-0.004 116.662-0.008 174.993-0.001 4.5-0.005 4.505-4.168 4.505-144.605-0.002-289.211-0.004-433.816-0.008-4.425 0-4.428-0.005-4.428-4.886-0.002-39.389-0.004-78.779-0.005-118.168 0-4.924-0.002-531.925-0.001-664.515 0-17.972 0.001-35.946 0.005-53.918 0.001-4.157 0.009-4.166 3.879-4.166 84.597 0.001 66.697-0.011 151.294 0.070 2.693 0.003 4.453-0.802 6.173-3.145 8.349-11.37 16.879-22.58 25.34-33.851 0.545-0.725-0.914-3.023-2.107-3.023-106.453-0.012-110.41-0.012-216.865-0.012-4.112 0-4.122 0.011-4.122 4.619-0.003 162.509 0.002 325.018-0.008 487.527-0.005 87.281-0.051 174.562-0.051 261.843 0 55.748 0.031 111.496 0.048 167.244 0.001 4.254-0.002 4.265 3.756 4.265 165.974 0.002 331.948-0.003 497.923 0.040 2.002 0 3.445-0.603 4.878-2.184 60.141-66.384 120.313-132.731 180.518-199.045 1.503-1.656 2.108-3.351 2.108-5.683-0.037-237.199-0.034-474.397-0.034-711.595 0-7.031-0.016-7.031-6.333-7.031-50.153 0-183.090 0-233.243 0h-4.741z" />
<glyph unicode="&#xe90c;" d="M334.769 176.027c2.034 0.107 3.281 0.226 4.528 0.227 24.63 0.010 49.26 0.003 73.889 0.003 4.679 0 4.696 0.004 4.697 5.215 0.004 79.004 0.004 158.008 0.006 237.013 0 2.269-0.249 4.597 0.14 6.78 0.197 1.1 1.446 2.195 2.453 2.805 0.741 0.45 1.862 0.119 2.814 0.119 59.254 0 118.509 0 177.763-0.003 5.556 0 5.58-0.005 5.581-6.386 0.010-79.671 0.010-159.344 0.021-239.015 0.001-7.758-0.186-6.492 5.676-6.503 24.273-0.044 48.546-0.013 72.819-0.010 1.16 0 2.32 0 4.075-0.95-58.892-79.635-117.783-159.27-176.983-239.323-59.211 80.077-118.083 159.699-177.478 240.027z" />
<glyph unicode="&#xe90d;" glyph-name="icon_misc-text-cursor" horiz-adv-x="43" d="M0 960h42.667v-1024h-42.667v1024z" />
<glyph unicode="&#xe90e;" glyph-name="Icon_Menu" d="M0 192h1024v-85.333h-1024v85.333zM0 490.667h1024v-85.333h-1024v85.333zM0 789.333h1024v-85.333h-1024v85.333z" />
<glyph unicode="&#xe90f;" glyph-name="icon_info" d="M511.984 832c-212.049 0-383.984-171.934-383.984-383.984s171.934-384.016 383.984-384.016c212.049 0 384.016 171.967 384.016 384.016s-171.967 383.984-384.016 383.984zM591.921 236.877c-19.765-7.802-35.499-13.718-47.299-17.814-11.768-4.096-25.454-6.144-41.025-6.144-23.926 0-42.553 5.851-55.816 17.522s-19.862 26.461-19.862 44.438c0 6.989 0.488 14.141 1.463 21.423 1.008 7.282 2.601 15.474 4.779 24.674l24.739 87.381c2.178 8.387 4.063 16.351 5.559 23.763 1.495 7.477 2.211 14.336 2.211 20.578 0 11.118-2.308 18.92-6.892 23.308-4.649 4.389-13.393 6.534-26.429 6.534-6.372 0-12.938-0.943-19.667-2.926-6.664-2.048-12.451-3.901-17.197-5.721l6.534 26.917c16.189 6.599 31.695 12.255 46.486 16.937 14.791 4.746 28.77 7.087 41.935 7.087 23.763 0 42.098-5.786 55.003-17.229 12.841-11.475 19.31-26.396 19.31-44.731 0-3.803-0.455-10.5-1.333-20.057-0.878-9.59-2.536-18.334-4.941-26.364l-24.609-87.121c-2.015-6.989-3.803-14.986-5.429-23.926-1.593-8.94-2.373-15.766-2.373-20.35 0-11.573 2.568-19.472 7.769-23.666 5.136-4.194 14.141-6.307 26.884-6.307 6.014 0 12.743 1.073 20.35 3.153 7.542 2.081 13.003 3.933 16.449 5.526l-6.599-26.884zM587.565 590.499c-11.475-10.663-25.291-15.994-41.448-15.994-16.124 0-30.037 5.331-41.61 15.994-11.508 10.663-17.327 23.633-17.327 38.782 0 15.116 5.851 28.119 17.327 38.879 11.573 10.793 25.486 16.156 41.61 16.156 16.156 0 30.005-5.364 41.448-16.156 11.475-10.76 17.229-23.763 17.229-38.879 0-15.181-5.754-28.119-17.229-38.782z" />
<glyph unicode="&#xe910;" glyph-name="icon_filter-hide-small" d="M602.51 512l181.019-181.019-90.51-90.51-181.019 181.019-181.019-181.019-90.51 90.51 181.019 181.019-181.019 181.019 90.51 90.51 181.019-181.019 181.019 181.019 90.51-90.51-181.019-181.019z" />
<glyph unicode="&#xe913;" glyph-name="icon_cta-video" d="M1011.232 872.156l-998.4 2.479c-7.069 0.018-12.814-5.699-12.832-12.768 0-0.011 0-0.021 0-0.032v-699.68c0-7.069 5.731-12.8 12.8-12.8 0.007 0 0.015 0 0.022 0l998.4 1.707c7.061 0.012 12.778 5.739 12.778 12.8v695.494c0 7.057-5.711 12.782-12.768 12.8zM426.667 336.085v309.443c0 4.713 3.821 8.533 8.533 8.533 1.663 0 3.29-0.486 4.681-1.399l232.083-152.272c3.94-2.585 5.039-7.875 2.454-11.816-0.618-0.942-1.417-1.753-2.35-2.384l-232.083-157.172c-3.902-2.643-9.208-1.622-11.851 2.281-0.957 1.412-1.468 3.079-1.468 4.785z" />
<glyph unicode="&#xe914;" glyph-name="icon_cta-shower-door" d="M432.68 914.84l246.995 45.16v-45.16h173.658v-901.033h-176.81v67.464l112.609-0.907v769.183h-109.457v-913.547l-425.547 77.807h-83.462v901.033z" />
<glyph unicode="&#xe915;" glyph-name="icon_cta-share" d="M829.438 337.742c-48.231 0-90.773-23.301-118.568-58.984l-370.44 133.694c3.375 12.765 5.801 25.954 5.801 39.834 0 15.111-2.881 29.337-6.901 43.18l369.303 133.077c27.642-37.298 71.284-61.676 120.842-61.676 83.949 0 151.859 68.865 151.859 153.918 0 84.977-67.909 153.881-151.857 153.881-83.759 0-151.744-68.904-151.744-153.879 0-13.92 2.428-27.146 5.839-39.95l-370.403-133.694c-27.831 35.72-70.451 59.098-118.757 59.098-83.874 0-151.744-68.941-151.744-153.956s67.872-153.918 151.744-153.918c49.633 0 93.239 24.455 120.993 61.79l369.188-133.077c-4.020-13.804-6.938-28.146-6.938-43.296 0-85.014 67.985-153.918 151.744-153.918 83.949 0 151.859 68.904 151.859 153.918 0.039 85.091-67.871 153.957-151.82 153.957z" />
<glyph unicode="&#xe916;" glyph-name="icon_cta-print" d="M1024 576h-1024v-426.667h145.655v158.384h728.276v-158.384h150.069v426.667zM938.667 490.667h-72.443v42.667h72.443v-42.667zM374.307-64l-32.273 86.956 470.694 5.126 0.007 664.537c-78.181 0-121.116 0-128.806 0-11.535 0-22.314 8.77-22.314 24.625-0.001 43.024-0.004 93.338-0.009 150.943l-450.307-0.431v-844.8h130.735l32.273-86.943c-82.019-0.009-162.569-0.013-241.649-0.013-4.582 0-4.593 0.012-4.593 5.111-0.003 179.797 0.003 359.595-0.009 539.392-0.005 96.566-0.057 193.132-0.057 289.698 0 61.678 0.034 123.357 0.053 185.036 0.001 4.707-0.002 4.718 4.186 4.718 184.942 0.002 369.885-0.003 554.828 0.045 2.231 0 3.839-0.667 5.436-2.417 67.014-73.446 134.063-146.852 201.149-220.22 1.674-1.832 2.349-3.707 2.349-6.287-0.042-262.433-0.037-524.865-0.038-787.297 0-7.779-0.017-7.779-7.057-7.779-37.257 0-208.789 0-514.597 0z" />
<glyph unicode="&#xe917;" glyph-name="icon_cta-page-url" d="M554.039 320.066c34.097-6.064 68.799-5.916 102.207 0.949-7.79-11.792-16.75-23.003-27.065-33.312l-182.14-182.14c-88.137-88.124-235.709-83.953-328.961 9.294-93.255 93.263-97.437 240.853-9.299 328.964l182.14 182.14c88.119 88.137 235.69 83.966 328.95-9.294 32.469-32.448 53.876-71.544 64.62-112.368l-6.709-6.709c-17.299-17.289-39.525-26.941-63.096-29.404-5.282 34.121-21.476 67.656-48.559 94.735-63.615 63.597-162.953 67.781-221.44 9.294l-182.151-182.14c-58.492-58.524-54.308-157.822 9.307-221.456 63.607-63.597 162.953-67.757 221.432-9.294l160.763 160.742zM602.32 937.349c88.124 88.135 235.714 83.94 328.953-9.32 93.25-93.25 97.431-240.813 9.294-328.95l-182.127-182.14c-88.127-88.111-235.698-83.956-328.958 9.307-32.467 32.459-53.87 71.541-64.612 112.379l6.701 6.709c17.289 17.265 39.528 26.978 63.096 29.417 5.285-34.105 21.478-67.667 48.562-94.745 63.628-63.621 162.953-67.794 221.44-9.307l182.138 182.154c58.498 58.484 54.316 157.809-9.307 221.432-63.607 63.607-162.959 67.792-221.432 9.305l-160.8-160.792c-34.076 6.101-68.789 5.892-102.207-0.952 7.809 11.794 16.756 23.008 27.094 33.352l182.167 182.154z" />
<glyph unicode="&#xe918;" glyph-name="icon_cta-gallery" d="M1007.776 960c8.965 0 16.224-7.672 16.224-17.141v-819.052c0-9.469-7.259-17.141-16.224-17.141h-991.552c-8.959 0-16.224 7.672-16.224 17.141v819.052c0 9.469 7.265 17.141 16.224 17.141h991.552zM703.522 487.458l236.361-244.134v626.935h-855.447v-600.918l246.882 331.693c1.223 1.735 3.134 2.773 5.182 2.818 2.125 0.048 4.004-0.912 5.289-2.592l197.811-257.322 154.762 143.911c2.661 2.475 6.694 2.3 9.16-0.391zM682.665 618.667c-47.133 0-85.332 38.204-85.332 85.33 0 47.116 38.195 85.337 85.332 85.337 47.098 0 85.335-38.221 85.335-85.337 0-47.13-38.237-85.33-85.335-85.33z" />
<glyph unicode="&#xe919;" glyph-name="icon_cta-document-copy" d="M799.815 533.282l-0.115 0.052-287.691-130.39-167.574 76.034-344.435 158.369 512.009 237.32 511.991-237.32-179.931-83.908-44.254-20.157zM798.319 407.108l45.75-20.968 179.931-83.391-511.991-238.75-512.009 238.75 214.17 109.578 297.839-134.995 286.31 129.775z" />
<glyph unicode="&#xe91a;" glyph-name="icon_cta-document" d="M213.333 566.443c3.427 0.167 5.529 0.353 7.63 0.355 41.506 0.015 83.012 0.005 124.517 0.005 7.885 0 7.914 0.007 7.916 8.136 0.006 123.246 0.006 246.492 0.010 369.74 0 3.54-0.42 7.171 0.236 10.578 0.332 1.716 2.437 3.425 4.134 4.376 1.248 0.701 3.138 0.185 4.742 0.185 99.854 0 199.709 0 299.563-0.005 9.363 0 9.403-0.008 9.405-9.963 0.016-124.287 0.018-248.576 0.035-372.864 0.002-12.102-0.313-10.128 9.565-10.144 40.904-0.068 81.809-0.020 122.713-0.015 1.954 0 3.91 0 6.867-1.483-99.243-124.231-198.486-248.461-298.25-373.343-99.781 124.92-198.992 249.131-299.084 374.443zM0 106.667h1024v-170.667h-1024v170.667z" />
<glyph unicode="&#xe91b;" glyph-name="icon_cta-compare" d="M610.076 488.219l413.924-213.631c-276.29-139.684-414.434-209.061-414.434-208.131 0.007 29.217 0.071 58.435-0.020 87.652-0.022 7.056 2.61 6.831-13.526 6.832-165.716 0.013-416.768 0.014-582.485 0.025-13.273 0.001-13.284 0.030-13.284 6.718-0.007 71.325-0.007 142.649-0.007 213.974 0 1.146-0.689 2.496 0.247 3.387 1.268 1.212 3.547 2.716 5.835 2.953 4.542 0.469 9.384 0.168 14.103 0.168 164.331 0.002 413.992 0.002 578.32 0.007 10.839 0.001 10.847 0.022 10.847 5.654 0 19.764 0.16 51.228 0.48 94.391zM413.924 872.219c0.32-43.163 0.48-74.627 0.48-94.391 0-5.632 0.009-5.653 10.847-5.654 164.328-0.005 413.99-0.005 578.32-0.007 4.72 0 9.561 0.3 14.103-0.168 2.288-0.237 4.566-1.741 5.835-2.953 0.935-0.892 0.247-2.242 0.247-3.387 0-71.325 0-142.649-0.007-213.974 0-6.688-0.011-6.716-13.284-6.718-165.716-0.011-416.768-0.013-582.485-0.025-16.136-0.001-13.504 0.223-13.526-6.832-0.091-29.217-0.027-58.435-0.020-87.652 0-0.931-138.145 68.446-414.434 208.131l413.924 213.631z" />
<glyph unicode="&#xe91c;" glyph-name="icon_cta-collection-pdf" d="M293.152 302.363c0-18.881-13.683-30.073-35.836-30.073-6.032 0-10.407 0.267-13.967 1.069v54.465c3.006 0.801 8.754 1.639 17.241 1.639 20.783 0 32.562-10.123 32.562-27.099zM421.81 328.892c35.834 0 58.273-20.247 58.005-58.542 0-44.038-24.625-64.822-62.381-64.554-5.196 0-10.944 0-14.503 0.835v120.624c3.557 0.833 9.572 1.637 18.879 1.637zM660.847 960l258.387-257.482v-655.901c0-60.007-48.821-108.792-108.76-108.792h-560.175c-59.977 0-108.792 48.783-108.792 108.792v48.751h-10.626c-24.209 0-43.839 19.611-43.839 43.837v265.867c0 24.228 19.632 43.841 43.839 43.841h10.626v402.294c0 59.943 48.815 108.792 108.792 108.792h410.548zM202.050 357.093v-181.937h41.299v65.926c3.842-0.532 8.754-0.804 14.234-0.804 24.625 0 45.675 6.015 59.909 19.414 10.944 10.391 16.959 25.729 16.959 43.771 0 18.046-7.938 33.381-19.7 42.671-12.313 9.858-30.639 14.766-56.352 14.766-25.443 0-43.502-1.637-56.35-3.808zM810.474 4.451c23.221 0 42.098 18.911 42.098 42.168l-1.571 629.506-139.633-0.401c-41.666 0-75.447 33.813-75.447 75.447v142.54l-385.622-0.403c-23.221 0-42.135-18.911-42.135-42.101v-402.294h522.198c24.211 0 43.841-19.613 43.841-43.841v-265.867c0-24.226-19.63-43.837-43.841-43.837h-522.198v-48.751c0-23.255 18.911-42.166 42.135-42.166h560.175zM361.082 175.991c10.391-1.367 25.708-2.737 47.329-2.737 36.103 0 65.655 7.653 85.068 23.792 17.794 15.034 30.642 39.393 30.642 74.678 0 32.575-12.027 55.264-31.174 69.498-17.792 13.397-40.498 19.679-75.513 19.679-21.069 0-41.034-1.37-56.352-3.808v-181.102zM659.647 283.214h-66.21v42.137h70.853v34.18h-112.704v-184.375h41.85v74.146h66.21v33.913z" />
<glyph unicode="&#xe91d;" d="M0 960h1024v-1024h-1024v1024z" />
<glyph unicode="&#xe91e;" d="M667.149 476.444l-172.927 182.64 64.339 52.026 259.217-273.778-259.217-273.778-64.339 52.026 172.927 182.64h-496.482v78.222h496.482z" />
<glyph unicode="&#xe91f;" glyph-name="icon_cta-arrow-carrot" d="M320 512l-298.667-256v512z" />
<glyph unicode="&#xe920;" d="M896 448c0-212.077-171.923-384-384-384s-384 171.923-384 384c0 212.077 171.923 384 384 384s384-171.923 384-384z" />
<glyph unicode="&#xe921;" d="M413.632 235.136l-157.632 157.664 56.544 56.576 98.368-98.368 291.776 320.992 59.168-53.824z" />
<glyph unicode="&#xe922;" glyph-name="icon_close" d="M584.408 448l398.243-398.243-72.408-72.408-398.243 398.243-398.243-398.243-72.408 72.408 398.243 398.243-398.243 398.243 72.408 72.408 398.243-398.243 398.243 398.243 72.408-72.408-398.243-398.243z" />
<glyph unicode="&#xe923;" d="M1024 448c0-282.77-229.23-512-512-512s-512 229.23-512 512c0 282.77 229.23 512 512 512s512-229.23 512-512z" />
<glyph unicode="&#xe924;" d="M413.632 235.136l-157.632 157.664 56.544 56.576 98.368-98.368 291.776 320.992 59.168-53.824z" />
<glyph unicode="&#xe925;" d="M1024 448c0-282.77-229.23-512-512-512s-512 229.23-512 512c0 282.77 229.23 512 512 512s512-229.23 512-512z" />
<glyph unicode="&#xe926;" d="M464.448 224l-48.448 52.288 159.104 171.712-159.104 171.712 48.448 52.288 207.552-224z" />
<glyph unicode="&#xe927;" glyph-name="icon_Check-Mark" d="M380.843 164.181l-210.176 210.219 75.392 75.435 131.157-131.157 389.035 427.989 78.891-71.765z" />
<glyph unicode="&#xe928;" glyph-name="icon_cart" d="M1000.102 917.333h-185.128l-178-678.664h-356.041l-151.634 360.871h603.381l19.096 75.453h-734.554l215.187-512.904h461.421l186.797 681.911h84.832l34.644 73.333zM348.92 115.461c38.608 0 69.942-31.334 69.942-69.942 0-38.654-31.334-69.942-69.942-69.942s-69.942 31.287-69.942 69.942c0 38.608 31.334 69.942 69.942 69.942zM512.117 45.52c0 38.654 31.334 69.942 69.942 69.942s69.942-31.334 69.942-69.942c0-38.654-31.334-69.942-69.942-69.942s-69.942 31.287-69.942 69.942z" />
<glyph unicode="&#xe929;" glyph-name="icon_bullet-LI" d="M682.667 448c0-94.257-76.41-170.667-170.667-170.667s-170.667 76.41-170.667 170.667c0 94.257 76.41 170.667 170.667 170.667s170.667-76.41 170.667-170.667z" />
<glyph unicode="&#xe92a;" glyph-name="icon_arrow-small-right" d="M464.448 224l-48.448 52.288 159.104 171.712-159.104 171.712 48.448 52.288 207.552-224z" />
<glyph unicode="&#xe92b;" glyph-name="icon_Arrow-Plus-Minus-X-Large-ArrowMenuDown" d="M810.667 554.090l-69.689 64.577-228.978-212.18-228.978 212.18-69.689-64.577 298.667-276.757z" />
<glyph unicode="&#xe92c;" glyph-name="Icon_ArrowMenuUp" d="M451.765 518.275v421.647h120.471v-421.647h421.647v-120.471h-421.647v-421.647h-120.471v421.647h-421.647v120.471h421.647z" />
<glyph unicode="&#xe92d;" glyph-name="Icon_ArrowMenuDown" d="M0 522.667h1024v-128h-1024v128z" />
<glyph unicode="&#xe92e;" glyph-name="icon_arrow-medium-up" d="M896 404.784l-89.637-84.784-294.363 278.432-294.363-278.432-89.637 84.784 384 363.216z" />
<glyph unicode="&#xe92f;" glyph-name="icon_arrow-medium-down" d="M896 683.216l-89.637 84.784-294.363-278.432-294.363 278.432-89.637-84.784 384-363.216z" />
<glyph unicode="&#xe930;" d="M0 960h1024v-1024h-1024v1024z" />
<glyph unicode="&#xe931;" d="M766.334 466.286l-222.334 234.823 82.721 66.891 333.279-352-333.279-352-82.721 66.891 222.334 234.823h-638.334v100.571h638.334z" />
<glyph unicode="&#xe932;" glyph-name="icon_arrow-large-down" d="M1024 657.874l-49.617 46.126-355.717-325.486-348.12 325.486-57.214-46.126 405.333-380.541z" />
<glyph unicode="&#xe933;" glyph-name="icon_account" d="M843.87 310.537c-51.119 51.117-111.963 88.959-178.348 111.866 71.1 48.97 117.812 130.926 117.812 223.597 0 149.613-121.72 271.333-271.333 271.333s-271.333-121.721-271.333-271.333c0-92.671 46.711-174.627 117.814-223.597-66.385-22.907-127.23-60.749-178.349-111.866-88.645-88.647-137.465-206.507-137.465-331.87h73.333c0 218.355 177.645 396 396 396s396-177.645 396-396h73.333c0 125.363-48.82 243.223-137.463 331.87zM512 448c-109.177 0-198 88.821-198 198s88.823 198 198 198c109.177 0 198-88.821 198-198s-88.823-198-198-198z" />
<glyph unicode="&#xe934;" glyph-name="arrow-4-long" horiz-adv-x="1208" d="M916.583 513.641l-319.249 337.182 118.779 96.048 478.554-505.436-478.554-505.436-118.779 96.048 319.249 337.182h-916.583v144.41h916.583z" />
</font>
</defs>
</svg>
